<?xml version="1.0" standalone="no"?>
<!DOCTYPE svg PUBLIC "-//W3C//DTD SVG 20010904//EN"
 "http://www.w3.org/TR/2001/REC-SVG-20010904/DTD/svg10.dtd">
<svg version="1.0" xmlns="http://www.w3.org/2000/svg"
 width="148.000000pt" height="139.000000pt" viewBox="0 0 148.000000 139.000000"
 preserveAspectRatio="xMidYMid meet">
<metadata>
Created by potrace 1.10, written by Peter Selinger 2001-2011
</metadata>
<g transform="translate(0.000000,139.000000) scale(0.050000,-0.050000)"
fill="#000000" stroke="none">
<path d="M1445 2484 c-62 -9 -125 -97 -125 -173 0 -58 -9 -68 -107 -108 -140
-58 -264 -183 -341 -343 l-62 -130 -7 -402 -6 -403 -119 -117 c-88 -87 -118
-131 -118 -172 l0 -56 930 0 930 0 0 56 c0 41 -30 85 -119 173 l-118 117 -7
402 -6 402 -63 133 c-77 163 -193 279 -338 339 -100 42 -109 51 -109 109 0
116 -93 191 -215 173z"/>
<path d="M1260 418 c0 -218 401 -230 451 -13 l13 55 -232 0 c-222 0 -232 -2
-232 -42z"/>
</g>
</svg>
