<?xml version="1.0" standalone="no"?>
<!DOCTYPE svg PUBLIC "-//W3C//DTD SVG 20010904//EN"
 "http://www.w3.org/TR/2001/REC-SVG-20010904/DTD/svg10.dtd">
<svg version="1.0" xmlns="http://www.w3.org/2000/svg"
 width="40.000000pt" height="40.000000pt" viewBox="0 0 40.000000 40.000000"
 preserveAspectRatio="xMidYMid meet">
<metadata>
Created by potrace 1.10, written by Peter Selinger 2001-2011
</metadata>
<g transform="translate(0.000000,40.000000) scale(0.100000,-0.100000)"
fill="#000000" stroke="none">
<path d="M153 385 c-36 -15 -63 -60 -63 -102 0 -23 -6 -31 -30 -40 l-30 -11 0
-106 c0 -94 2 -106 19 -116 26 -13 276 -13 302 0 17 10 19 22 19 116 l0 106
-30 11 c-24 9 -30 17 -30 40 0 43 -28 87 -65 103 -42 17 -51 17 -92 -1z m89
-52 c10 -9 18 -30 18 -50 l0 -33 -60 0 -60 0 0 32 c0 59 60 90 102 51z"/>
</g>
</svg>
