<?xml version="1.0" standalone="no"?>
<!DOCTYPE svg PUBLIC "-//W3C//DTD SVG 20010904//EN"
 "http://www.w3.org/TR/2001/REC-SVG-20010904/DTD/svg10.dtd">
<svg version="1.0" xmlns="http://www.w3.org/2000/svg"
 width="275.000000pt" height="241.000000pt" viewBox="0 0 275.000000 241.000000"
 preserveAspectRatio="xMidYMid meet">
<metadata>
Created by potrace 1.10, written by Peter Selinger 2001-2011
</metadata>
<g transform="translate(0.000000,241.000000) scale(0.100000,-0.100000)"
fill="#fafaf9" stroke="none">
<path d="M710 1915 c-360 -267 -665 -493 -678 -504 l-22 -20 2 -688 3 -688
1363 -3 1362 -2 0 515 0 515 -90 0 -90 0 0 -67 c-1 -38 -2 -228 -3 -423 l-2
-355 -221 -3 -220 -2 -424 354 c-234 195 -426 359 -427 363 -2 5 92 87 207
183 l211 175 523 5 522 5 -669 560 c-368 308 -674 561 -680 562 -7 1 -307
-216 -667 -482z m940 24 c146 -121 266 -223 268 -227 1 -4 -209 -184 -468
-401 -258 -216 -470 -397 -470 -402 0 -4 150 -133 333 -286 458 -383 507 -424
507 -429 0 -2 -60 -4 -132 -4 l-133 0 -390 326 c-214 179 -400 336 -413 348
l-24 23 471 393 c259 217 471 397 471 400 0 12 -273 255 -285 254 -10 -1 -358
-248 -399 -283 -17 -15 -14 -20 70 -98 49 -45 87 -83 84 -86 -28 -24 -633
-528 -657 -547 -18 -14 -32 -29 -32 -35 0 -5 175 -156 390 -335 214 -179 397
-333 406 -342 15 -17 -10 -18 -515 -18 l-532 0 0 564 0 563 323 233 c177 129
403 292 502 363 99 72 216 157 259 189 44 32 85 58 91 58 6 0 130 -99 275
-221z m-282 -222 l33 -34 -57 -46 c-31 -26 -59 -47 -63 -47 -4 0 -22 15 -40
34 l-33 34 59 45 c32 25 60 46 64 47 3 0 20 -15 37 -33z m791 -202 l72 -60
-80 -3 c-45 -2 -117 -2 -162 0 l-81 3 78 67 c44 36 84 63 90 60 6 -4 43 -34
83 -67z"/>
</g>
</svg>
