<?xml version="1.0" standalone="no"?>
<!DOCTYPE svg PUBLIC "-//W3C//DTD SVG 20010904//EN"
 "http://www.w3.org/TR/2001/REC-SVG-20010904/DTD/svg10.dtd">
<svg version="1.0" xmlns="http://www.w3.org/2000/svg"
 width="40.000000pt" height="40.000000pt" viewBox="0 0 40.000000 40.000000"
 preserveAspectRatio="xMidYMid meet">
<metadata>
Created by potrace 1.10, written by Peter Selinger 2001-2011
</metadata>
<g transform="translate(0.000000,40.000000) scale(0.100000,-0.100000)"
fill="#000000" stroke="none">
<path d="M156 315 c-38 -39 -22 -98 31 -111 32 -8 54 4 71 39 13 28 4 62 -22
79 -19 13 -64 9 -80 -7z"/>
<path d="M140 158 c-46 -13 -70 -35 -70 -65 0 -23 0 -23 130 -23 130 0 130 0
130 23 0 32 -26 54 -80 66 -53 12 -64 12 -110 -1z"/>
</g>
</svg>
